<svg width="80" height="80" viewBox="0 0 80 80" fill="none" xmlns="http://www.w3.org/2000/svg">
<path d="M40 6.66669C21.6667 6.66669 6.66669 21.6667 6.66669 40C6.66669 58.3334 21.6667 73.3334 40 73.3334C58.3334 73.3334 73.3334 58.3334 73.3334 40C73.3334 21.6667 58.3334 6.66669 40 6.66669ZM40 66.6667C25.3 66.6667 13.3334 54.7 13.3334 40C13.3334 25.3 25.3 13.3334 40 13.3334C54.7 13.3334 66.6667 25.3 66.6667 40C66.6667 54.7 54.7 66.6667 40 66.6667ZM55.3 25.2667L33.3334 47.2334L24.7 38.6334L20 43.3334L33.3334 56.6667L60 30L55.3 25.2667Z" fill="#34D399"/>
</svg>
