<svg width="40" height="40" viewBox="0 0 40 40" fill="none" xmlns="http://www.w3.org/2000/svg">
<path d="M29.9091 11.7727V14.0909C29.9091 14.303 29.8409 14.4773 29.7045 14.6136C29.5682 14.75 29.3939 14.8182 29.1818 14.8182H25.3636C25.0152 17 24.0379 18.7727 22.4318 20.1364C20.8258 21.5 18.7348 22.3333 16.1591 22.6364C18.6894 25.3333 22.1667 29.3939 26.5909 34.8182C26.803 35.0606 26.8333 35.3182 26.6818 35.5909C26.5606 35.8636 26.3409 36 26.0227 36H21.5909C21.3485 36 21.1591 35.9091 21.0227 35.7273C16.3864 30.1667 12.6136 25.8409 9.70455 22.75C9.56818 22.6136 9.5 22.447 9.5 22.25V19.3636C9.5 19.1667 9.57197 18.9962 9.71591 18.8523C9.85985 18.7083 10.0303 18.6364 10.2273 18.6364H12.7727C14.7727 18.6364 16.3826 18.3106 17.6023 17.6591C18.822 17.0076 19.5985 16.0606 19.9318 14.8182H10.2273C10.0152 14.8182 9.84091 14.75 9.70455 14.6136C9.56818 14.4773 9.5 14.303 9.5 14.0909V11.7727C9.5 11.5606 9.56818 11.3864 9.70455 11.25C9.84091 11.1136 10.0152 11.0455 10.2273 11.0455H19.6136C18.75 9.33333 16.7197 8.47727 13.5227 8.47727H10.2273C10.0303 8.47727 9.85985 8.4053 9.71591 8.26136C9.57197 8.11742 9.5 7.94697 9.5 7.75V4.72727C9.5 4.51515 9.56818 4.34091 9.70455 4.20455C9.84091 4.06818 10.0152 4 10.2273 4H29.1364C29.3485 4 29.5227 4.06818 29.6591 4.20455C29.7955 4.34091 29.8636 4.51515 29.8636 4.72727V7.04545C29.8636 7.25758 29.7955 7.43182 29.6591 7.56818C29.5227 7.70455 29.3485 7.77273 29.1364 7.77273H23.8409C24.553 8.69697 25.0379 9.78788 25.2955 11.0455H29.1818C29.3939 11.0455 29.5682 11.1136 29.7045 11.25C29.8409 11.3864 29.9091 11.5606 29.9091 11.7727Z" fill="white"/>
</svg>
