<svg width="18" height="14" viewBox="0 0 18 14" fill="none" xmlns="http://www.w3.org/2000/svg">
<path d="M17.7015 7.51966C17.8926 7.32849 18 7.06924 18 6.79892C18 6.5286 17.8926 6.26935 17.7015 6.07818L11.9346 0.311222C11.8405 0.213856 11.728 0.136193 11.6037 0.0827649C11.4793 0.0293372 11.3455 0.00121473 11.2102 3.84903e-05C11.0748 -0.00113775 10.9406 0.024656 10.8153 0.0759142C10.69 0.127172 10.5762 0.202869 10.4804 0.298587C10.3847 0.394304 10.309 0.508126 10.2578 0.633411C10.2065 0.758696 10.1807 0.892936 10.1819 1.0283C10.1831 1.16366 10.2112 1.29743 10.2646 1.4218C10.3181 1.54618 10.3957 1.65867 10.4931 1.75271L14.5199 5.77948L1.01945 5.77948C0.749079 5.77948 0.489781 5.88689 0.298599 6.07807C0.107418 6.26925 1.3611e-05 6.52855 1.3611e-05 6.79892C1.3611e-05 7.06929 0.107418 7.32859 0.298599 7.51977C0.489781 7.71095 0.749079 7.81836 1.01945 7.81836L14.5199 7.81836L10.4931 11.8451C10.3074 12.0374 10.2046 12.2949 10.207 12.5622C10.2093 12.8295 10.3165 13.0852 10.5055 13.2742C10.6945 13.4632 10.9502 13.5704 11.2175 13.5728C11.4848 13.5751 11.7423 13.4723 11.9346 13.2866L17.7015 7.51966Z" fill="white"/>
</svg>
