<svg width="20" height="20" viewBox="0 0 20 20" fill="none" xmlns="http://www.w3.org/2000/svg">
<path d="M4.16681 8.21709C5.7638 11.6953 8.60548 14.4608 12.1384 15.9599L12.7048 16.2123C14.0004 16.7895 15.5236 16.351 16.3138 15.173L17.0539 14.0699C17.2945 13.7113 17.2213 13.2283 16.8851 12.9571L14.3753 10.9323C14.0066 10.6348 13.4645 10.7041 13.1825 11.0847L12.4061 12.1324C10.4137 11.1496 8.79618 9.53205 7.81339 7.53971L8.8611 6.76328C9.24165 6.48126 9.31092 5.93917 9.01351 5.57051L6.98862 3.06056C6.7175 2.72449 6.23458 2.65119 5.87594 2.89166L4.76524 3.63641C3.57996 4.43117 3.1438 5.96687 3.73441 7.266L4.16616 8.21568L4.16681 8.21709Z" fill="white"/>
</svg>
